<?xml version="1.0" encoding="UTF-8" standalone="no"?><!DOCTYPE svg PUBLIC "-//W3C//DTD SVG 1.1//EN" "http://www.w3.org/Graphics/SVG/1.1/DTD/svg11.dtd"><svg width="100%" height="100%" viewBox="0 0 109 98" version="1.1" xmlns="http://www.w3.org/2000/svg" xmlns:xlink="http://www.w3.org/1999/xlink" xml:space="preserve" xmlns:serif="http://www.serif.com/" style="fill-rule:evenodd;clip-rule:evenodd;stroke-linejoin:round;stroke-miterlimit:2;"><rect id="Page-41" serif:id="Page 41" x="0" y="0" width="109" height="98" style="fill:none;"/><g id="Layer-1" serif:id="Layer 1"><path d="M53.446,81.31c-3.058,-1.384 -6.116,-2.767 -9.381,-4.243c0,0.795 -0.054,1.294 0.009,1.777c0.422,3.237 2.136,5.655 4.867,7.337c1.735,1.069 3.563,1.99 5.348,2.979c0.324,0.18 0.646,0.362 0.996,0.559c-0.296,0.639 -0.679,0.447 -1.064,0.231c-0.936,-0.528 -1.863,-1.071 -2.811,-1.579c-0.296,-0.158 -0.646,-0.218 -1.049,-0.348c-0.02,0.268 -0.033,0.44 -0.046,0.615c-0.031,0.442 -0.272,0.505 -0.595,0.288c-4.219,-2.838 -8.474,-5.633 -11.823,-9.546c-0.477,-0.558 -0.909,-1.116 -1.746,-1.168c-0.236,-0.014 -0.51,-0.293 -0.672,-0.519c-2.231,-3.108 -3.953,-6.452 -4.744,-10.232c-0.126,-0.6 -0.288,-1.208 -0.545,-1.76c-0.332,-0.71 -0.993,-0.994 -1.754,-1.124c-2.9,-0.498 -5.839,-1.072 -8.304,-2.705c-2.616,-1.734 -5.517,-2.725 -8.347,-3.931c-3.021,-1.287 -5.995,-2.674 -8.6,-4.719c-0.716,-0.564 -1.391,-1.19 -2.031,-1.84c-0.935,-0.954 -1.078,-1.997 -0.543,-3.218c0.053,-0.122 0.052,-0.307 0.001,-0.431c-0.534,-1.315 0.023,-2.297 0.961,-3.151c0.397,-0.361 0.83,-0.683 1.264,-1.001c2.927,-2.156 5.193,-4.883 6.515,-8.255c1.672,-4.262 4.874,-6.614 9.075,-7.884c2.524,-0.763 5.115,-0.971 7.739,-0.873c0.404,0.015 0.806,0.051 1.21,0.059c1.124,0.022 1.528,-0.264 1.514,-1.378c-0.018,-1.394 0.449,-2.634 0.917,-3.895c0.286,-0.773 0.703,-1.257 1.628,-1.28c0.839,-0.021 1.483,-0.518 1.725,-1.35c0.183,-0.627 0.549,-0.812 1.139,-0.706c0.589,0.107 0.999,-0.065 1.361,-0.595c0.209,-0.306 0.665,-0.497 1.049,-0.617c1.026,-0.321 2.215,0.12 3.154,-0.663c0.051,-0.043 0.165,-0.046 0.236,-0.023c0.995,0.322 1.995,0.375 2.957,-0.068c0.391,1.078 0.605,1.173 1.368,0.564c0.805,-0.642 1.588,-0.434 2.428,-0.123c0.318,0.118 0.731,0.171 1.045,0.074c0.946,-0.291 1.055,-0.262 1.233,0.708c1.057,0.021 2.297,-1.085 3.218,0.466c0.213,0.012 0.506,0.018 0.798,0.043c0.431,0.035 0.723,0.196 0.641,0.709c-0.108,0.684 0.271,0.867 0.807,0.63c1.015,-0.449 1.795,-0.062 2.612,0.505c0.422,0.294 0.967,0.412 1.456,0.61c0.411,0.165 0.809,0.369 1.232,0.488c0.318,0.089 0.665,0.083 1,0.098c0.637,0.028 1.444,-0.368 1.599,0.765c0.024,0.175 0.506,0.353 0.8,0.412c0.391,0.077 0.827,-0.036 1.199,0.077c0.309,0.093 0.766,0.378 0.786,0.61c0.065,0.731 0.514,0.948 1.076,0.931c1.114,-0.033 1.96,0.316 2.526,1.323c0.093,0.166 0.472,0.276 0.695,0.244c0.589,-0.083 0.91,0.176 1.14,0.668c0.309,0.66 0.833,0.867 1.53,0.695c0.683,-0.168 1.158,-0.018 1.29,0.778c0.025,0.153 0.326,0.385 0.485,0.374c1.054,-0.074 1.87,0.274 2.536,1.117c0.164,0.209 0.634,0.172 0.963,0.256c0.573,0.146 1.213,0.186 1.702,0.476c0.711,0.424 1.424,0.62 2.221,0.527c1.208,-0.141 2.317,0.024 3.418,0.632c0.593,0.327 1.379,0.371 2.086,0.407c0.77,0.039 1.422,0.123 2.058,0.691c0.406,0.362 1.149,0.325 1.719,0.526c1.03,0.36 2.051,0.746 3.057,1.166c0.157,0.066 0.344,0.408 0.298,0.552c-0.216,0.677 -0.363,1.432 -1.207,1.673c-0.969,0.278 -1.417,0.942 -1.75,1.903c-0.955,2.754 -2.476,5.196 -4.659,7.156c-1.931,1.735 -4.115,2.252 -6.551,1.046c-0.193,-0.095 -0.43,-0.099 -0.646,-0.145c-0.038,0.099 -0.076,0.199 -0.114,0.299c0.427,0.176 0.838,0.427 1.282,0.515c2.761,0.557 5.499,0.198 8.13,-0.596c4.317,-1.303 8.578,-2.8 12.852,-4.246c1.143,-0.387 2.274,-0.66 3.47,-0.337c1.709,0.462 2.878,1.53 3.169,3.285c0.325,1.958 0.526,3.941 0.671,5.922c0.108,1.481 -0.236,2.879 -1.237,4.062c-0.6,0.708 -0.808,1.554 -0.771,2.482c0.084,2.149 0.258,4.305 0.166,6.447c-0.055,1.286 -0.391,2.614 -0.873,3.813c-0.853,2.121 -2.494,2.952 -4.743,2.507c-0.958,-0.19 -1.938,-0.525 -2.774,-1.019c-3.892,-2.302 -7.669,-4.781 -11.113,-7.729c-2.186,-1.872 -4.798,-2.314 -7.541,-2.298c-1.019,0.006 -2.041,0.116 -3.057,0.226c-0.406,0.044 -0.798,0.212 -1.197,0.323c0.003,0.097 0.006,0.194 0.009,0.289c0.306,0.022 0.622,0.105 0.916,0.058c3.181,-0.509 5.715,0.952 6.787,3.982c0.296,0.834 0.505,1.701 0.713,2.563c1.234,5.135 4.127,8.966 8.878,11.346c0.068,0.035 0.126,0.09 0.175,0.284c-0.744,-0.067 -1.498,-0.083 -2.231,-0.21c-2.908,-0.504 -5.823,-0.985 -8.708,-1.601c-1.031,-0.22 -1.979,-0.815 -2.977,-1.206c-1.024,-0.401 -2.054,-0.79 -3.101,-1.122c-0.398,-0.127 -0.914,-0.232 -1.265,-0.083c-1.323,0.563 -2.272,-0.044 -3.206,-0.837c-0.438,-0.372 -0.879,-0.489 -1.474,-0.232c-0.769,0.334 -1.551,0.155 -2.187,-0.392c-0.852,-0.733 -1.664,-1.512 -2.552,-2.325c-1.334,0.461 -1.666,0.346 -2.55,-1.094c-0.364,-0.595 -0.744,-1.197 -0.988,-1.845c-0.334,-0.882 -0.958,-1.243 -1.835,-1.32c-5.918,-0.515 -11.834,-1.048 -17.755,-1.541c-1.036,-0.086 -2.085,-0.013 -3.143,0.13c0.836,0.28 1.711,0.481 2.493,0.868c0.542,0.27 1.092,0.715 1.398,1.226c0.939,1.571 1.541,3.331 1.405,5.146c-0.186,2.478 0.867,4.25 2.767,5.541c1.859,1.262 3.865,2.307 5.803,3.457c0.257,0.153 0.482,0.363 0.722,0.547l-0.232,0.344Z" style="fill-rule:nonzero;"/></g></svg>