<svg viewBox="0 0 109 98" xmlns="http://www.w3.org/2000/svg" xml:space="preserve" fill-rule="evenodd" clip-rule="evenodd" stroke-linejoin="round" stroke-miterlimit="2"><path fill="none" d="M0 0h109v98H0z"/><path d="m53.4 81.3-9.3-4.2v1.7a10 10 0 0 0 4.8 7.4l5.4 3 1 .5c-.3.7-.7.5-1 .3l-2.9-1.6-1-.4v.6q-.2.7-.7.3c-4.2-2.8-8.5-5.6-11.8-9.5q-.7-1-1.7-1.2-.5-.1-.7-.5a27 27 0 0 1-4.8-10.2q-.1-.9-.5-1.8t-1.8-1.1a22 22 0 0 1-8.3-2.7c-2.6-1.8-5.5-2.8-8.3-4a37 37 0 0 1-10.6-6.5Q-.2 50 .6 48.2v-.5q-.6-2 1-3.1l1.2-1q4.5-3.2 6.6-8.3a13 13 0 0 1 9-7.9q3.8-1 7.8-.8h1.2q1.6.2 1.5-1.4 0-2 1-3.8.2-1.2 1.5-1.3 1.3 0 1.8-1.4.2-.9 1.1-.7t1.4-.6q.4-.5 1-.6c1-.3 2.2.1 3.2-.7h.2q1.5.5 3 0 .3 1.5 1.3.5 1.2-.7 2.5-.1.5.2 1 0c1-.2 1-.2 1.2.8 1 0 2.3-1.1 3.2.4h.8q.8.1.7.8 0 1 .8.6 1.4-.4 2.6.5.7.4 1.5.6l1.2.5 1 .1c.6 0 1.4-.3 1.6.8q.2.3.8.4h1.2l.8.7q.1 1 1 1 1.8-.2 2.6 1.2.2.3.7.3.8-.1 1.1.7.5.9 1.5.6 1.1-.3 1.3.8.2.3.5.4 1.5 0 2.6 1.1.3.2 1 .3.8.1 1.6.5 1 .6 2.2.5 1.8-.3 3.5.6a5 5 0 0 0 2 .4q1.2-.1 2.1.7.8.4 1.7.5l3 1.2q.3.1.4.6-.2 1.1-1.2 1.6-1.4.5-1.8 2-1.5 4.1-4.6 7-3 2.8-6.6 1.1l-.6-.1-.1.3 1.2.5q4.2.8 8.2-.6l12.8-4.2q1.8-.7 3.5-.4 2.7.7 3.2 3.3l.6 6q.2 2.1-1.2 4-.8 1-.8 2.5l.2 6.4q0 2-.9 3.8-1.3 3.3-4.7 2.5a9 9 0 0 1-2.8-1 78 78 0 0 1-11.1-7.7 11 11 0 0 0-7.6-2.3l-3 .2-1.2.3v.3h1a6 6 0 0 1 6.7 4l.7 2.6q1.8 7.8 9 11.4l.2.3-2.3-.2-8.7-1.6-3-1.3-3-1q-.8-.3-1.3-.2c-1.3.6-2.3 0-3.2-.8q-.7-.6-1.5-.2a2 2 0 0 1-2.2-.4l-2.5-2.3c-1.4.4-1.7.3-2.6-1.1l-1-1.9q-.5-1.2-1.8-1.3l-17.8-1.5h-3.1l2.5 1q.8.4 1.4 1.2 1.5 2.3 1.4 5.1-.2 3.7 2.8 5.6 2.7 1.8 5.8 3.4l.7.6z" fill-rule="nonzero"/></svg>