<?xml version="1.0" encoding="UTF-8" standalone="no"?>
<!DOCTYPE svg PUBLIC "-//W3C//DTD SVG 1.1//EN" "http://www.w3.org/Graphics/SVG/1.1/DTD/svg11.dtd">
<svg width="100%" height="100%" viewBox="0 0 455 409" version="1.1" xmlns="http://www.w3.org/2000/svg" xmlns:xlink="http://www.w3.org/1999/xlink" xml:space="preserve" xmlns:serif="http://www.serif.com/" style="fill-rule:evenodd;clip-rule:evenodd;stroke-linejoin:round;stroke-miterlimit:2;">
    <g transform="matrix(1,0,0,1,-2554.6875,-1837.5)">
        <g id="Page-42" serif:id="Page 42" transform="matrix(4.166667,0,0,4.166667,2554.6875,1837.5)">
            <rect x="0" y="0" width="109" height="98" style="fill:none;"/>
            <g id="Layer-1" serif:id="Layer 1">
                <g transform="matrix(1,0,0,1,2.2926,47.0004)">
                    <path d="M0,-0.082C-0.295,-0.595 -0.707,-1.888 0.316,-2.439C5.709,-5.339 15.818,-10.375 25.04,-11.307C42.151,-13.036 56.621,-9.096 67.033,-7.461C71.027,-6.836 78.784,-4.284 82.812,-3.929C83.71,-3.85 85.53,-3.946 86.422,-4.089C90.907,-4.798 102.476,-10.044 104.083,-8.179C104.749,-7.408 103.498,-4.778 103.455,-3.381C103.43,-2.557 103.432,-0.901 103.534,-0.082C103.674,1.095 104.807,3.389 104.554,4.547C103.847,7.767 91.869,2.101 87.6,1.565C86.564,1.436 84.478,1.156 83.439,1.251C79.258,1.627 71.281,4.547 67.191,5.489C58.922,7.396 44.871,12.954 33.912,12.163C20.881,11.221 13.895,6.471 8.91,5.45C7.294,5.121 6.046,4.862 3.532,4.704C2.523,4.642 3.239,7.93 2.904,7.807C1.963,7.452 2.316,4.273 1.571,4.194C1.238,4.16 0.564,3.626 0.551,3.291C0.503,2.127 4.968,3.123 5.024,1.958C5.089,0.605 0.682,1.088 0,-0.082" style="fill-rule:nonzero;"/>
                </g>
                <g transform="matrix(0.43119,0.902261,0.902261,-0.43119,30.085732,25.758334)">
                    <path d="M8.926,-3.923C6.122,-1.278 3.154,8.491 3.83,9.906C4.412,11.124 7.583,11.763 8.926,11.648C12.018,11.389 15.04,8.114 15.04,8.114L8.926,-3.923Z" style="fill-rule:nonzero;"/>
                </g>
                <g transform="matrix(0,1,1,0,56.1341,22.8038)">
                    <path d="M12.957,-10.826C11.852,-6.039 7.015,-2.287 7.014,1.029C7.014,4.558 10.239,8.498 12.957,11.858C13.845,12.957 16.77,12.347 16.77,12.347L12.957,-10.826Z" style="fill-rule:nonzero;"/>
                </g>
                <g transform="matrix(-0.084884,0.996391,0.996391,0.084884,77.776042,29.883401)">
                    <path d="M10.228,-7.924C8.436,-3.744 3.733,1.317 4.369,3.395C4.639,4.274 8.814,8.677 10.228,9.406C10.783,9.693 13.091,8.156 13.091,8.156L10.228,-7.924Z" style="fill-rule:nonzero;"/>
                </g>
                <g transform="matrix(0.10674,0.994287,0.994287,-0.10674,58.802688,45.742802)">
                    <path d="M10.939,-11.446C12.473,-6.867 16.703,-2.287 16.607,1.025C16.501,4.555 13.929,7.32 10.939,10.439C8.879,12.591 7.684,9.601 7.684,9.601L10.939,-11.446Z" style="fill-rule:nonzero;"/>
                </g>
                <g transform="matrix(0.09838,0.995149,0.995149,-0.09838,78.268748,42.868095)">
                    <path d="M8.421,-8.861C9.435,-4.161 13.782,0.301 13.321,3.62C13.197,4.528 9.906,8.54 8.421,9.11C7.319,9.538 5.214,8.166 5.214,8.166L8.421,-8.861Z" style="fill-rule:nonzero;"/>
                </g>
                <g transform="matrix(1,0,0,1,26.3775,66.0672)">
                    <path d="M0,-8.796C-0.829,-7.145 1.466,0 2.231,-0.002C2.38,-0.002 1.888,-1.777 2.468,-2.826C3.115,-3.999 3.631,-6.09 3.614,-6.652C3.6,-7.08 2.815,-8.162 2.815,-8.162L0,-8.796Z" style="fill-rule:nonzero;"/>
                </g>
            </g>
        </g>
    </g>
</svg>
