<svg viewBox="0 0 455 409" xmlns="http://www.w3.org/2000/svg" xml:space="preserve" fill-rule="evenodd" clip-rule="evenodd" stroke-linejoin="round" stroke-miterlimit="2"><g transform="scale(4.16667)"><path fill="none" d="M0 0h109v98H0z"/><path d="M2.3 47c-.3-.7-.7-2 .3-2.5 5.4-3 15.5-8 24.7-9 17.2-1.5 31.6 2.5 42 4.2 4 .6 11.8 3.1 15.8 3.5 1 0 2.7 0 3.6-.2 4.5-.7 16-6 17.7-4 .6.7-.6 3.3-.6 4.7V47c.2 1.2 1.3 3.5 1 4.6-.7 3.3-12.6-2.4-16.9-3-1 0-3.1-.3-4.2-.2-4.1.3-12.1 3.2-16.2 4.2-8.3 1.9-22.3 7.5-33.3 6.7-13-1-20-5.7-25-6.7-1.6-.6-2.9-.7-5.4-.9-1 0-.3 3.2-.6 3.1-1-.3-.6-3.5-1.3-3.6-.4 0-1-.6-1-1-.1-.9 4.4.1 4.4-1.2s-4.3-1-5-2" fill-rule="nonzero"/><path d="M30.3 35.6a26 26 0 0 1 10.4-10.8c1.2 0 3.2 2.7 3.6 4 1.2 2.9-.5 7-.5 7zm15 .2c4.8-1.1 8.5-6 11.8-6 3.6 0 7.5 3.2 10.9 6 1 .8.4 3.8.4 3.8zM69 39.4c4.6-1.4 10-5.7 12-4.8a23 23 0 0 1 5.5 6.3c.2.6-1.5 2.8-1.5 2.8zM48.7 57.9c4.5.9 9.6 4.6 13 4.1s5.9-3.3 8.6-6.7c2-2.2-1-3-1-3zm21.5-5.8c4.8.5 9.7 4.5 13 3.8 1-.3 4.6-4 5-5.6.3-1-1.4-3-1.4-3zm-43.8 5.1c-.8 1.7 1.5 8.8 2.2 8.8.2 0-.3-1.8.3-2.8a17 17 0 0 0 1.1-3.9c0-.4-.8-1.5-.8-1.5z" fill-rule="nonzero"/></g></svg>