<svg viewBox="0 0 109 98" xmlns="http://www.w3.org/2000/svg" xml:space="preserve" fill-rule="evenodd" clip-rule="evenodd" stroke-linejoin="round" stroke-miterlimit="2"><path fill="none" d="M0 0h109v98H0z"/><path d="M35.4 60.6c-14-6.1-18.3-16.4-19-31.6 0-.4.2-2 0-3.1-.4-1.3-2.4-2.5-5-2.6-.9 0-2.5.5-3.4.7l-5.1.5-2-.2s1.3-2 3.3-3l5-2.3c.6-.3 3.2-1.8 3.4-2.2q.4-1 .7-3c.1-.6 1-2.6 3.2-4.1q4-2.7 9.4-2c.7 0 2.8.2 5.8 1.8.6.4 3.3 2.4 4.5 5.1.4 1 1.8 4.5 2 4.7.7.6 6 2.1 7 2.5 1 .5 6.5 1.8 13.4 5.7A52 52 0 0 1 70 37.2a72 72 0 0 0 18 13.5c3 1.4 20 7.1 20 7.1 2.7.7-12.6-1.2-12.8-.7-.5 1.2 7.8 5.3 9 6.3 3.8 3.3-15-6.5-19-7-4.3-.5-6.4 3.4-13.3 5.8a60 60 0 0 1-16.5 1.4l.8 2c.2.8-.4 2.4-.5 3.3 0 1 .5 14.4.8 15q.5 1.2 1.3 2.3l1.8 2s-2.2-1.3-3-1c-.3 0-2.9 1.2-2.9 1.2s.3-1.5-.3-1.6c-.8 0-4.8.8-4.8.8s3.4-1.4 3.8-1.8l1-1.7c.2-1.2-.2-14.4-.5-15.3s-.8-2-.4-3.5c0-.4-.8-1.5-.8-1.5l-3.2.2v1.4c0 .5.7 1.2.7 1.6 0 .6-1 1.6-1.2 2.2l-4.6 13.4q-.2.6-.4 2.7c0 .6 1.5 2 1.5 2s-2.6-.6-3.1-.5l-3 1.2s0-1-.5-1.1c-.8-.2-4.5 0-4.5 0l4.9-1.3c1.3-.6 1.7-2.2 2.2-3.7.2-.5 4.7-13.3 4.7-13.8s-.3-1.4-.1-1.8l.8-1c.2-.5.1-1.4.1-1.4s-8.2-2.3-10.5-3.3" fill-rule="nonzero"/></svg>