<?xml version="1.0" encoding="UTF-8" standalone="no"?><!DOCTYPE svg PUBLIC "-//W3C//DTD SVG 1.1//EN" "http://www.w3.org/Graphics/SVG/1.1/DTD/svg11.dtd"><svg width="100%" height="100%" viewBox="0 0 109 98" version="1.1" xmlns="http://www.w3.org/2000/svg" xmlns:xlink="http://www.w3.org/1999/xlink" xml:space="preserve" xmlns:serif="http://www.serif.com/" style="fill-rule:evenodd;clip-rule:evenodd;stroke-linejoin:round;stroke-miterlimit:2;"><rect id="Artboard1" x="0" y="0" width="109" height="98" style="fill:none;"/><g id="Artboard11" serif:id="Artboard1"><path d="M35.434,60.582c-14.048,-6.089 -18.353,-16.346 -19.044,-31.558c-0.018,-0.443 0.241,-1.941 -0.082,-3.156c-0.347,-1.286 -2.284,-2.439 -4.911,-2.537c-0.865,-0.033 -2.541,0.509 -3.395,0.626c-1.529,0.201 -4.529,0.54 -5.128,0.498c-0.474,-0.035 -1.884,-0.204 -1.884,-0.204c0,0 1.257,-1.992 3.256,-2.915c0.649,-0.301 4.433,-1.99 5.02,-2.317c0.489,-0.279 3.088,-1.828 3.316,-2.196c0.403,-0.644 0.456,-1.793 0.693,-2.933c0.155,-0.715 0.974,-2.649 3.236,-4.19c2.691,-1.83 5.675,-2.386 9.416,-2.039c0.699,0.066 2.787,0.255 5.726,1.864c0.668,0.37 3.302,2.421 4.551,5.124c0.394,0.865 1.791,4.458 2.039,4.677c0.653,0.602 6.014,2.105 6.881,2.475c1.104,0.465 6.538,1.846 13.444,5.748c5.604,3.17 10.551,8.526 11.563,9.666c3.243,3.661 11.87,10.739 17.762,13.497c2.946,1.379 20.053,7.092 20.053,7.092c2.641,0.739 -12.669,-1.16 -12.864,-0.668c-0.443,1.151 7.826,5.224 9.053,6.295c3.772,3.309 -15.033,-6.496 -19.128,-7.008c-4.234,-0.531 -6.279,3.384 -13.229,5.737c-3.535,1.197 -12.109,1.543 -13.358,1.492c-1.056,-0.044 -3.07,-0.053 -3.07,-0.053c0,0 0.527,1.332 0.735,2.023c0.235,0.781 -0.385,2.417 -0.447,3.232c-0.082,1.102 0.505,14.407 0.766,15.133c0.212,0.593 0.901,1.662 1.268,2.176c0.396,0.549 1.78,2.032 1.78,2.032c0,0 -2.143,-1.315 -2.864,-1.073c-0.407,0.139 -2.984,1.324 -2.984,1.324c0,0 0.272,-1.505 -0.272,-1.6c-0.815,-0.137 -4.836,0.717 -4.836,0.717c0,0 3.426,-1.394 3.758,-1.762c0.336,-0.376 0.852,-1.257 0.956,-1.746c0.25,-1.149 -0.115,-14.325 -0.401,-15.206c-0.325,-1.003 -0.834,-2.036 -0.432,-3.597c0.093,-0.354 -0.746,-1.456 -0.746,-1.456l-3.249,0.181c0,0 -0.084,1.202 -0.013,1.47c0.108,0.405 0.733,1.109 0.704,1.532c-0.046,0.646 -0.894,1.574 -1.131,2.18c-0.478,1.279 -4.529,13.006 -4.617,13.433c-0.117,0.52 -0.447,1.231 -0.412,2.756c0.011,0.531 1.463,1.888 1.463,1.888c0,0 -2.594,-0.502 -3.079,-0.387c-1.003,0.243 -2.984,1.173 -2.984,1.173c0,0 -0.104,-1.067 -0.496,-1.158c-0.848,-0.195 -4.548,0.095 -4.548,0.095c0,0 4.555,-1.171 4.889,-1.315c1.388,-0.595 1.709,-2.207 2.275,-3.758c0.166,-0.452 4.697,-13.247 4.695,-13.785c-0.002,-0.458 -0.336,-1.383 -0.162,-1.808c0.142,-0.343 0.668,-0.717 0.85,-1.042c0.226,-0.407 0.08,-1.401 0.08,-1.401c0,0 -8.161,-2.266 -10.46,-3.265" style="fill-rule:nonzero;"/></g></svg>