<?xml version="1.0" encoding="UTF-8" standalone="no"?><!DOCTYPE svg PUBLIC "-//W3C//DTD SVG 1.1//EN" "http://www.w3.org/Graphics/SVG/1.1/DTD/svg11.dtd"><svg width="100%" height="100%" viewBox="0 0 109 98" version="1.1" xmlns="http://www.w3.org/2000/svg" xmlns:xlink="http://www.w3.org/1999/xlink" xml:space="preserve" xmlns:serif="http://www.serif.com/" style="fill-rule:evenodd;clip-rule:evenodd;stroke-miterlimit:10;"><rect id="Page-44" serif:id="Page 44" x="0" y="0" width="109" height="98" style="fill:none;"/><clipPath id="_clip1"><rect x="0" y="0" width="109" height="98"/></clipPath><g clip-path="url(#_clip1)"><g id="Layer-1" serif:id="Layer 1"><path d="M34.006,43.193c0,0 4.012,-1.255 6.387,-1.462c5.778,-0.501 23.35,3.896 29.144,3.787c5.689,-0.106 11.464,-2.956 11.877,-6.291c0.172,-1.396 -3.138,-2.825 -4.185,-3.768c-1.377,-1.24 -5.605,-3.11 -5.509,-4.962c0.128,-2.501 1.862,-5.393 8.087,-5.906c4.094,-0.338 12.322,1.989 16.372,1.32c3.722,-0.614 7.112,-3.301 7.897,-2.283c0.639,0.835 0.168,4.691 -1.895,6.484c-6.131,5.328 -10.881,4.301 -14.411,4.461c-2.443,0.112 -9.37,-1.261 -10.541,0.886c0,0 8.358,2.998 7.716,12.242c-0.271,3.896 -1.093,9.052 -9.759,12.197c-3.262,1.184 -10.553,0.335 -13.865,-0.699c-7.194,-2.245 -27.315,-16.006 -27.315,-16.006Z" style="fill:#231f20;fill-rule:nonzero;stroke:#1d1d1b;stroke-width:0.66px;"/><path d="M3.844,56.037c3.36,2.128 8.817,-0.374 10.419,-0.472c7.876,-0.481 8.857,-1.926 13.097,-1.765c11.342,0.428 23.923,4.408 29.145,5.135c4.656,0.65 18.457,0.3 22.982,-3.338c2.621,-2.106 5.906,-7.789 4.752,-12.582c-1.279,-5.304 -7.661,-8.689 -7.661,-8.689c1.901,-4.375 12.975,0.264 19.942,-2.908c4.323,-1.97 5.93,-4.878 5.625,-5.394c-0.427,-0.727 -1.731,2.269 -9.733,2.782c-4.399,0.283 -11.129,-2.888 -16.862,-1.284c-2.873,0.804 -5.821,3.894 -5.821,3.894c-2.569,7.96 5.992,13.267 5.992,13.267c-4.297,7.704 -25.865,-0.168 -40.471,-1.401c-2.272,-0.192 -4.377,-0.224 -6.22,-0.01c-5.163,0.597 -16.093,2.482 -19.772,6.419c-1.167,1.249 -5.505,2.936 -6.208,4.151c-0.448,0.778 2.569,1.37 2.569,1.37c0,0 -2.106,0.615 -1.775,0.825" style="fill:#1d1d1b;fill-rule:nonzero;"/><path d="M3.844,56.037c3.36,2.128 8.817,-0.374 10.419,-0.472c7.876,-0.481 8.857,-1.926 13.097,-1.765c11.342,0.428 23.923,4.408 29.145,5.135c4.656,0.65 18.457,0.3 22.982,-3.338c2.621,-2.106 5.906,-7.789 4.752,-12.582c-1.279,-5.304 -7.661,-8.689 -7.661,-8.689c1.901,-4.375 12.975,0.264 19.942,-2.908c4.323,-1.97 5.93,-4.878 5.625,-5.394c-0.427,-0.727 -1.731,2.269 -9.733,2.782c-4.399,0.283 -11.129,-2.888 -16.862,-1.284c-2.873,0.804 -5.821,3.894 -5.821,3.894c-2.569,7.96 5.992,13.267 5.992,13.267c-4.297,7.704 -25.865,-0.168 -40.471,-1.401c-2.272,-0.192 -4.377,-0.224 -6.22,-0.01c-5.163,0.597 -16.093,2.482 -19.772,6.419c-1.167,1.249 -5.505,2.936 -6.208,4.151c-0.448,0.778 2.569,1.37 2.569,1.37c0,0 -2.106,0.615 -1.775,0.825Z" style="fill:none;fill-rule:nonzero;stroke:#1d1d1b;stroke-width:0.66px;"/><path d="M73.911,46.566c0,0 6.136,-4.679 6.154,-7.916c0.014,-2.246 -3.985,-5.026 -5.841,-6.291c-1.412,-0.963 -1.591,-3.381 -1.591,-3.381c0,0 -0.818,0.887 -0.913,1.519c-0.378,2.505 5.287,5.06 5.713,7.558c0.771,4.501 -3.522,8.511 -3.522,8.511Z" style="fill:#fff;fill-rule:nonzero;stroke:#1d1d1b;stroke-width:0.66px;"/></g></g></svg>