<svg viewBox="0 0 109 98" xmlns="http://www.w3.org/2000/svg" xml:space="preserve" fill-rule="evenodd" clip-rule="evenodd" stroke-miterlimit="10"><path fill="none" d="M0 0h109v98H0z"/><clipPath id="a"><path d="M0 0h109v98H0z"/></clipPath><g fill-rule="nonzero" clip-path="url(#a)"><path d="M34 43.2s4-1.3 6.4-1.5c5.8-.5 23.3 4 29.1 3.8 5.7 0 11.5-3 12-6.3 0-1.4-3.2-2.8-4.3-3.7-1.3-1.3-5.6-3.2-5.5-5 .1-2.5 1.9-5.4 8.1-6 4.1-.2 12.3 2 16.4 1.4 3.7-.6 7-3.3 7.9-2.3.6.9.1 4.7-2 6.5-6 5.3-10.8 4.3-14.3 4.5-2.5 0-9.4-1.3-10.6.9 0 0 8.4 3 7.7 12.2-.2 3.9-1 9-9.7 12.2-3.3 1.2-10.6.3-13.9-.7-7.2-2.2-27.3-16-27.3-16Z" fill="#231f20" stroke="#1d1d1b" stroke-width=".7"/><path d="M3.8 56c3.4 2.2 8.9-.3 10.5-.4 7.8-.5 8.8-2 13-1.8 11.4.4 24 4.4 29.2 5.1 4.7.7 18.5.3 23-3.3 2.6-2.1 5.9-7.8 4.7-12.6-1.2-5.3-7.6-8.7-7.6-8.7 1.9-4.3 13 .3 20-2.9 4.2-2 5.8-4.9 5.5-5.4-.4-.7-1.7 2.3-9.7 2.8-4.4.3-11.1-2.9-16.9-1.3-2.8.8-5.8 4-5.8 4-2.5 7.9 6 13.2 6 13.2-4.3 7.7-25.8-.2-40.5-1.4q-3.3-.3-6.2 0c-5.1.6-16 2.5-19.7 6.4-1.2 1.2-5.5 3-6.3 4.1-.4.8 2.6 1.4 2.6 1.4s-2 .6-1.8.8" fill="#1d1d1b"/><path d="M3.8 56c3.4 2.2 8.9-.3 10.5-.4 7.8-.5 8.8-2 13-1.8 11.4.4 24 4.4 29.2 5.1 4.7.7 18.5.3 23-3.3 2.6-2.1 5.9-7.8 4.7-12.6-1.2-5.3-7.6-8.7-7.6-8.7 1.9-4.3 13 .3 20-2.9 4.2-2 5.8-4.9 5.5-5.4-.4-.7-1.7 2.3-9.7 2.8-4.4.3-11.1-2.9-16.9-1.3-2.8.8-5.8 4-5.8 4-2.5 7.9 6 13.2 6 13.2-4.3 7.7-25.8-.2-40.5-1.4q-3.3-.3-6.2 0c-5.1.6-16 2.5-19.7 6.4-1.2 1.2-5.5 3-6.3 4.1-.4.8 2.6 1.4 2.6 1.4s-2 .6-1.8.8Z" fill="none" stroke="#1d1d1b" stroke-width=".7"/><path d="M74 46.6s6-4.7 6-8c0-2.2-4-5-5.8-6.2-1.4-1-1.6-3.4-1.6-3.4s-.8.9-.9 1.5c-.4 2.5 5.3 5 5.7 7.6.8 4.5-3.5 8.5-3.5 8.5Z" fill="#fff" stroke="#1d1d1b" stroke-width=".7"/></g></svg>